<?xml version="1.0" encoding="UTF-8"?>
<!DOCTYPE svg PUBLIC "-//W3C//DTD SVG 1.1//EN" "http://www.w3.org/Graphics/SVG/1.1/DTD/svg11.dtd">
<svg xmlns="http://www.w3.org/2000/svg" version="1.1" width="700px" height="700px" style="shape-rendering:geometricPrecision; text-rendering:geometricPrecision; image-rendering:optimizeQuality; fill-rule:evenodd; clip-rule:evenodd" xmlns:xlink="http://www.w3.org/1999/xlink">
<g><path style="opacity:0.95" fill="#000000" d="M 341.5,53.5 C 360.494,51.0807 374.66,58.0807 384,74.5C 385.958,79.3292 387.124,84.3292 387.5,89.5C 406.692,93.3053 425.859,97.3053 445,101.5C 447.966,99.9955 450.299,97.6622 452,94.5C 468.055,79.4113 485.555,77.5779 504.5,89C 520.317,103.436 523.483,120.269 514,139.5C 510.487,143.678 506.987,147.845 503.5,152C 513.943,181.831 524.277,211.664 534.5,241.5C 563.731,242.901 577.231,258.235 575,287.5C 571.777,301.723 563.277,311.223 549.5,316C 543.962,316.895 538.462,317.728 533,318.5C 523.5,342.167 514,365.833 504.5,389.5C 520.7,405.003 523.533,422.67 513,442.5C 500.777,457.769 485.277,462.269 466.5,456C 459.702,452.933 454.035,448.433 449.5,442.5C 429.538,449.765 409.538,456.932 389.5,464C 385.887,495.142 368.554,508.476 337.5,504C 316.272,495.048 308.106,479.215 313,456.5C 314.473,452.221 316.473,448.221 319,444.5C 319.667,443.5 319.667,442.5 319,441.5C 305.421,422.675 292.087,403.675 279,384.5C 229.861,401.714 187.194,391.714 151,354.5C 122.688,319.343 116.022,280.343 131,237.5C 156.223,184.023 198.39,160.857 257.5,168C 264.929,169.366 272.096,171.533 279,174.5C 292.087,155.325 305.421,136.325 319,117.5C 319.667,116.5 319.667,115.5 319,114.5C 308.78,98.2603 309.113,82.2603 320,66.5C 325.928,59.9598 333.094,55.6265 341.5,53.5 Z M 348.5,72.5 C 366.115,76.0626 371.281,86.0626 364,102.5C 356.425,110.26 347.925,111.426 338.5,106C 328.934,95.6636 329.267,85.6636 339.5,76C 342.459,74.3957 345.459,73.2291 348.5,72.5 Z M 476.5,101.5 C 495.355,101.51 502.188,110.51 497,128.5C 490.406,137.786 481.906,139.953 471.5,135C 459.5,124.667 459.5,114.333 471.5,104C 473.315,103.243 474.981,102.41 476.5,101.5 Z M 383.5,108.5 C 403.418,113.084 423.418,117.417 443.5,121.5C 443.876,124.627 443.876,127.627 443.5,130.5C 425.5,141.5 407.5,152.5 389.5,163.5C 383.641,149.924 377.974,136.257 372.5,122.5C 376.953,118.388 380.62,113.722 383.5,108.5 Z M 336.5,127.5 C 342.401,128.957 348.401,129.624 354.5,129.5C 360.147,144.135 365.814,158.802 371.5,173.5C 355.289,184.195 338.789,194.528 322,204.5C 314.857,196.197 306.691,189.197 297.5,183.5C 310.51,164.804 323.51,146.138 336.5,127.5 Z M 453.5,147.5 C 455.564,148.058 457.23,149.225 458.5,151C 446.792,182.627 434.792,214.127 422.5,245.5C 413.704,224.739 405.038,203.906 396.5,183C 415.673,171.304 434.673,159.47 453.5,147.5 Z M 477.5,157.5 C 479.833,157.5 482.167,157.5 484.5,157.5C 494.723,187.336 505.057,217.169 515.5,247C 512.013,251.155 508.513,255.322 505,259.5C 502.965,262.561 501.799,265.895 501.5,269.5C 479.49,269.833 457.49,269.5 435.5,268.5C 449.507,231.476 463.507,194.476 477.5,157.5 Z M 224.5,189.5 C 226.477,200.116 227.144,211.116 226.5,222.5C 219.837,222.026 213.171,221.526 206.5,221C 205.376,220.751 204.376,220.251 203.5,219.5C 208.225,207.796 215.225,197.796 224.5,189.5 Z M 246.5,189.5 C 252.052,192.213 256.552,196.213 260,201.5C 264.238,207.309 267.404,213.642 269.5,220.5C 261.861,221.37 254.195,222.036 246.5,222.5C 246.5,211.5 246.5,200.5 246.5,189.5 Z M 377.5,193.5 C 378.496,193.414 379.329,193.748 380,194.5C 389.735,219.206 399.569,243.873 409.5,268.5C 389.511,269.5 369.511,269.833 349.5,269.5C 348.085,251.996 342.752,235.829 333.5,221C 348.399,212.059 363.066,202.892 377.5,193.5 Z M 190.5,198.5 C 187.955,204.969 185.122,211.302 182,217.5C 178.138,216.547 174.305,215.38 170.5,214C 176.293,207.615 182.96,202.449 190.5,198.5 Z M 282.5,198.5 C 290.182,202.681 297.182,207.848 303.5,214C 299.322,215.252 295.156,216.418 291,217.5C 288.172,211.176 285.338,204.842 282.5,198.5 Z M 156.5,230.5 C 163.314,233.123 170.314,235.289 177.5,237C 174.98,246.975 173.48,257.141 173,267.5C 163.428,269.459 153.595,270.126 143.5,269.5C 145.249,255.585 149.583,242.585 156.5,230.5 Z M 313.5,231.5 C 314.978,231.238 316.311,231.571 317.5,232.5C 323.911,244.066 327.911,256.399 329.5,269.5C 319.833,269.5 310.167,269.5 300.5,269.5C 299.776,259.263 298.442,249.097 296.5,239C 296.755,237.674 297.422,236.674 298.5,236C 303.756,234.942 308.756,233.442 313.5,231.5 Z M 196.5,239.5 C 206.422,240.852 216.422,241.852 226.5,242.5C 226.5,251.5 226.5,260.5 226.5,269.5C 215.167,269.5 203.833,269.5 192.5,269.5C 193.553,259.465 194.886,249.465 196.5,239.5 Z M 275.5,239.5 C 278.268,249.186 279.934,259.186 280.5,269.5C 269.167,269.5 257.833,269.5 246.5,269.5C 246.5,260.5 246.5,251.5 246.5,242.5C 256.352,241.952 266.019,240.952 275.5,239.5 Z M 532.5,261.5 C 545.932,260.266 553.932,266.266 556.5,279.5C 552.315,296.426 542.315,301.26 526.5,294C 518.74,286.425 517.574,277.925 523,268.5C 525.79,265.535 528.957,263.202 532.5,261.5 Z M 143.5,289.5 C 153.19,289.168 162.856,289.502 172.5,290.5C 173.377,301.144 175.044,311.644 177.5,322C 170.462,323.632 163.629,325.799 157,328.5C 149.617,316.519 145.117,303.519 143.5,289.5 Z M 192.5,289.5 C 203.833,289.5 215.167,289.5 226.5,289.5C 226.5,298.5 226.5,307.5 226.5,316.5C 216.587,317.126 206.754,318.126 197,319.5C 194.892,309.578 193.392,299.578 192.5,289.5 Z M 246.5,289.5 C 257.833,289.5 269.167,289.5 280.5,289.5C 279.793,299.615 278.293,309.615 276,319.5C 266.252,318.066 256.419,317.066 246.5,316.5C 246.5,307.5 246.5,298.5 246.5,289.5 Z M 300.5,289.5 C 310.167,289.5 319.833,289.5 329.5,289.5C 327.98,302.226 324.147,314.226 318,325.5C 317.261,326.574 316.261,327.241 315,327.5C 309.557,325.797 304.057,324.297 298.5,323C 297.422,322.326 296.755,321.326 296.5,320C 298.442,309.903 299.776,299.737 300.5,289.5 Z M 349.5,289.5 C 368.503,289.333 387.503,289.5 406.5,290C 397.927,311.89 389.26,333.723 380.5,355.5C 365.97,347.738 351.637,339.738 337.5,331.5C 344.136,318.259 348.136,304.259 349.5,289.5 Z M 439.5,290.5 C 459.993,289.503 480.66,289.169 501.5,289.5C 501.965,293.062 503.132,296.395 505,299.5C 507.98,303.314 511.146,306.981 514.5,310.5C 504.963,334.405 495.296,358.238 485.5,382C 482.446,382.821 479.446,382.655 476.5,381.5C 464.336,350.986 452.002,320.653 439.5,290.5 Z M 422.5,302.5 C 434.576,331.543 446.576,360.71 458.5,390C 456.391,391.141 454.558,392.641 453,394.5C 438.072,385.952 422.906,377.785 407.5,370C 404.381,368.458 401.714,366.458 399.5,364C 407.272,343.515 414.939,323.015 422.5,302.5 Z M 219.5,336.5 C 221.833,336.5 224.167,336.5 226.5,336.5C 226.832,347.52 226.499,358.52 225.5,369.5C 215.53,361.516 208.196,351.516 203.5,339.5C 208.829,337.997 214.163,336.997 219.5,336.5 Z M 246.5,336.5 C 254.195,336.964 261.861,337.63 269.5,338.5C 265.357,351.126 258.024,361.459 247.5,369.5C 246.501,358.52 246.168,347.52 246.5,336.5 Z M 190.5,360.5 C 182.96,356.551 176.293,351.385 170.5,345C 174.305,343.62 178.138,342.453 182,341.5C 185.122,347.698 187.955,354.031 190.5,360.5 Z M 282.5,360.5 C 285.338,354.158 288.172,347.824 291,341.5C 295.156,342.582 299.322,343.748 303.5,345C 297.182,351.152 290.182,356.319 282.5,360.5 Z M 325.5,349.5 C 341.632,357.151 357.465,365.484 373,374.5C 367.407,392.714 360.907,410.714 353.5,428.5C 347.784,429.468 342.117,430.302 336.5,431C 323.305,412.638 310.305,394.138 297.5,375.5C 308.436,368.564 317.769,359.897 325.5,349.5 Z M 391.5,384.5 C 408.605,393.22 425.605,402.22 442.5,411.5C 443.66,415.459 443.827,419.459 443,423.5C 422.36,431.49 401.527,438.657 380.5,445C 377.238,442.246 374.571,439.079 372.5,435.5C 379.035,418.559 385.369,401.559 391.5,384.5 Z M 476.5,402.5 C 492.159,401.66 499.659,408.993 499,424.5C 493.906,437.869 484.74,441.702 471.5,436C 462.759,428.961 460.926,420.461 466,410.5C 468.94,406.963 472.44,404.297 476.5,402.5 Z M 345.5,449.5 C 364.121,450.412 370.621,459.745 365,477.5C 354.667,489.5 344.333,489.5 334,477.5C 328.765,464.316 332.598,454.983 345.5,449.5 Z"/></g>
<g><path style="opacity:0.894" fill="#000000" d="M 213.5,100.5 C 223.492,99.3271 227.992,103.66 227,113.5C 224.232,119.172 219.732,121.006 213.5,119C 205.731,112.883 205.731,106.716 213.5,100.5 Z"/></g>
<g><path style="opacity:0.89" fill="#000000" d="M 251.5,100.5 C 262.749,99.681 266.916,104.681 264,115.5C 258.261,120.773 252.595,120.773 247,115.5C 244.074,109.085 245.574,104.085 251.5,100.5 Z"/></g>
<g><path style="opacity:0.891" fill="#000000" d="M 195.5,128.5 C 205.482,127.982 209.649,132.648 208,142.5C 204.488,148.169 199.654,149.669 193.5,147C 189.741,143.257 188.574,138.757 190,133.5C 191.73,131.598 193.563,129.931 195.5,128.5 Z"/></g>
<g><path style="opacity:0.874" fill="#000000" d="M 233.5,128.5 C 245.548,128.779 249.048,134.445 244,145.5C 235.188,150.508 229.354,148.175 226.5,138.5C 226.91,133.636 229.244,130.303 233.5,128.5 Z"/></g>
<g><path style="opacity:0.876" fill="#000000" d="M 270.5,128.5 C 281.304,128.145 285.471,133.145 283,143.5C 276.555,150.408 270.555,150.074 265,142.5C 263.268,136.314 265.101,131.647 270.5,128.5 Z"/></g>
<g><path style="opacity:0.891" fill="#000000" d="M 196.5,410.5 C 206.024,410.522 209.858,415.189 208,424.5C 202.492,432.092 196.492,432.425 190,425.5C 187.885,418.414 190.051,413.414 196.5,410.5 Z"/></g>
<g><path style="opacity:0.871" fill="#000000" d="M 234.5,410.5 C 244.737,411.293 248.237,416.626 245,426.5C 240.832,430.764 235.998,431.597 230.5,429C 224.287,421.094 225.62,414.927 234.5,410.5 Z"/></g>
<g><path style="opacity:0.877" fill="#000000" d="M 271.5,410.5 C 281.672,410.823 285.505,415.823 283,425.5C 279.938,429.943 275.771,431.443 270.5,430C 264.975,427.081 263.142,422.581 265,416.5C 266.494,413.686 268.66,411.686 271.5,410.5 Z"/></g>
<g><path style="opacity:0.894" fill="#000000" d="M 213.5,439.5 C 223.772,437.939 228.272,442.273 227,452.5C 224.081,458.025 219.581,459.858 213.5,458C 205.569,451.796 205.569,445.629 213.5,439.5 Z"/></g>
<g><path style="opacity:0.891" fill="#000000" d="M 250.5,439.5 C 258.868,437.671 263.868,440.837 265.5,449C 264.12,457.027 259.453,460.027 251.5,458C 246.268,455.367 244.435,451.201 246,445.5C 247.332,443.34 248.832,441.34 250.5,439.5 Z"/></g>
<g><path style="opacity:0.802" fill="#000000" d="M 186.5,621.5 C 188.5,621.5 190.5,621.5 192.5,621.5C 192.5,628.833 192.5,636.167 192.5,643.5C 188.958,643.38 185.458,643.714 182,644.5C 179.497,644.01 177.497,642.677 176,640.5C 175.163,636.705 175.496,633.039 177,629.5C 179.837,627.415 182.837,627.081 186,628.5C 186.497,626.19 186.663,623.857 186.5,621.5 Z M 183.5,631.5 C 186.254,633.053 187.087,635.386 186,638.5C 183.2,640.118 181.7,639.285 181.5,636C 181.519,634.167 182.185,632.667 183.5,631.5 Z"/></g>
<g><path style="opacity:0.796" fill="#000000" d="M 206.5,621.5 C 208.5,621.5 210.5,621.5 212.5,621.5C 212.337,623.857 212.503,626.19 213,628.5C 216.163,627.081 219.163,627.415 222,629.5C 224.382,634.562 223.882,639.228 220.5,643.5C 219.393,644.022 218.226,644.355 217,644.5C 213.542,643.714 210.042,643.38 206.5,643.5C 206.5,636.167 206.5,628.833 206.5,621.5 Z M 214.5,631.5 C 217.254,633.053 218.087,635.386 217,638.5C 214.2,640.118 212.7,639.285 212.5,636C 212.519,634.167 213.185,632.667 214.5,631.5 Z"/></g>
<g><path style="opacity:0.653" fill="#000000" d="M 275.5,621.5 C 277.5,621.5 279.5,621.5 281.5,621.5C 281.5,623.167 281.5,624.833 281.5,626.5C 279.5,626.5 277.5,626.5 275.5,626.5C 275.5,624.833 275.5,623.167 275.5,621.5 Z"/></g>
<g><path style="opacity:0.773" fill="#000000" d="M 285.5,621.5 C 287.5,621.5 289.5,621.5 291.5,621.5C 291.335,624.85 291.502,628.183 292,631.5C 294.652,627.619 298.152,626.619 302.5,628.5C 300.208,630.657 297.875,632.824 295.5,635C 298.167,637.667 300.833,640.333 303.5,643C 298.788,644.443 294.955,643.277 292,639.5C 291.51,640.793 291.343,642.127 291.5,643.5C 289.5,643.5 287.5,643.5 285.5,643.5C 285.5,636.167 285.5,628.833 285.5,621.5 Z"/></g>
<g><path style="opacity:0.653" fill="#000000" d="M 354.5,621.5 C 356.5,621.5 358.5,621.5 360.5,621.5C 360.5,623.167 360.5,624.833 360.5,626.5C 358.5,626.5 356.5,626.5 354.5,626.5C 354.5,624.833 354.5,623.167 354.5,621.5 Z"/></g>
<g><path style="opacity:0.781" fill="#000000" d="M 76.5,622.5 C 80.2396,622.241 83.9062,622.574 87.5,623.5C 88.8333,625.167 88.8333,626.833 87.5,628.5C 78.8695,625.966 75.7029,628.966 78,637.5C 81.3333,640.167 84.6667,640.167 88,637.5C 88.4955,639.473 88.6621,641.473 88.5,643.5C 73.9625,646.464 68.4625,640.797 72,626.5C 73.3968,624.93 74.8968,623.596 76.5,622.5 Z"/></g>
<g><path style="opacity:0.835" fill="#000000" d="M 254.5,622.5 C 258.846,622.334 263.179,622.501 267.5,623C 272.69,625.949 273.69,629.949 270.5,635C 267.312,636.316 263.978,636.816 260.5,636.5C 260.5,638.833 260.5,641.167 260.5,643.5C 258.5,643.5 256.5,643.5 254.5,643.5C 254.5,636.5 254.5,629.5 254.5,622.5 Z M 260.5,627.5 C 262.948,627.01 264.615,627.843 265.5,630C 264.381,631.876 262.714,632.709 260.5,632.5C 260.5,630.833 260.5,629.167 260.5,627.5 Z"/></g>
<g><path style="opacity:0.835" fill="#000000" d="M 333.5,622.5 C 337.846,622.334 342.179,622.501 346.5,623C 351.69,625.949 352.69,629.949 349.5,635C 346.312,636.316 342.978,636.816 339.5,636.5C 339.5,638.833 339.5,641.167 339.5,643.5C 337.5,643.5 335.5,643.5 333.5,643.5C 333.5,636.5 333.5,629.5 333.5,622.5 Z M 339.5,627.5 C 341.948,627.01 343.615,627.843 344.5,630C 343.381,631.876 341.714,632.709 339.5,632.5C 339.5,630.833 339.5,629.167 339.5,627.5 Z"/></g>
<g><path style="opacity:0.79" fill="#000000" d="M 144.5,623.5 C 146.5,623.5 148.5,623.5 150.5,623.5C 150.5,624.833 150.5,626.167 150.5,627.5C 152.167,627.5 153.833,627.5 155.5,627.5C 155.5,629.167 155.5,630.833 155.5,632.5C 153.833,632.5 152.167,632.5 150.5,632.5C 150.5,634.833 150.5,637.167 150.5,639.5C 152.167,639.5 153.833,639.5 155.5,639.5C 155.5,640.833 155.5,642.167 155.5,643.5C 152.223,643.784 149.057,643.451 146,642.5C 145.072,638.29 143.905,634.123 142.5,630C 143.618,627.941 144.285,625.774 144.5,623.5 Z"/></g>
<g><path style="opacity:0.79" fill="#000000" d="M 381.5,623.5 C 383.5,623.5 385.5,623.5 387.5,623.5C 387.5,624.833 387.5,626.167 387.5,627.5C 389.167,627.5 390.833,627.5 392.5,627.5C 392.5,629.167 392.5,630.833 392.5,632.5C 390.833,632.5 389.167,632.5 387.5,632.5C 387.5,634.833 387.5,637.167 387.5,639.5C 389.167,639.5 390.833,639.5 392.5,639.5C 392.5,640.833 392.5,642.167 392.5,643.5C 389.223,643.784 386.057,643.451 383,642.5C 382.072,638.29 380.905,634.123 379.5,630C 380.618,627.941 381.285,625.774 381.5,623.5 Z"/></g>
<g><path style="opacity:0.794" fill="#000000" d="M 92.5,627.5 C 96.6007,628.366 100.601,628.366 104.5,627.5C 104.5,629.167 104.5,630.833 104.5,632.5C 102.533,632.261 100.699,632.594 99,633.5C 98.5017,636.817 98.335,640.15 98.5,643.5C 96.5,643.5 94.5,643.5 92.5,643.5C 92.5,638.167 92.5,632.833 92.5,627.5 Z"/></g>
<g><path style="opacity:0.787" fill="#000000" d="M 109.5,627.5 C 118.011,625.696 122.344,629.029 122.5,637.5C 118.818,637.335 115.152,637.501 111.5,638C 114.264,640.982 117.264,641.149 120.5,638.5C 121.452,640.045 121.785,641.712 121.5,643.5C 115.676,645.505 110.509,644.505 106,640.5C 104.539,635.326 105.706,630.993 109.5,627.5 Z M 112.5,631.5 C 114.103,631.312 115.437,631.812 116.5,633C 114.833,633.667 113.167,633.667 111.5,633C 112.056,632.617 112.389,632.117 112.5,631.5 Z"/></g>
<g><path style="opacity:0.789" fill="#000000" d="M 126.5,627.5 C 139.178,625.52 143.844,630.853 140.5,643.5C 136.958,643.38 133.458,643.714 130,644.5C 124.795,643.692 123.128,640.692 125,635.5C 127.93,633.934 131.097,633.1 134.5,633C 133.57,632.009 132.404,631.509 131,631.5C 129.175,631.943 127.342,632.277 125.5,632.5C 125.366,630.708 125.699,629.042 126.5,627.5 Z M 130.5,637.5 C 134.97,637.03 135.47,638.03 132,640.5C 130.961,639.756 130.461,638.756 130.5,637.5 Z"/></g>
<g><path style="opacity:0.787" fill="#000000" d="M 160.5,627.5 C 169.011,625.696 173.344,629.029 173.5,637.5C 169.818,637.335 166.152,637.501 162.5,638C 165.264,640.982 168.264,641.149 171.5,638.5C 172.452,640.045 172.785,641.712 172.5,643.5C 166.676,645.505 161.509,644.505 157,640.5C 155.539,635.326 156.706,630.993 160.5,627.5 Z M 163.5,631.5 C 165.103,631.312 166.437,631.812 167.5,633C 165.833,633.667 164.167,633.667 162.5,633C 163.056,632.617 163.389,632.117 163.5,631.5 Z"/></g>
<g><path style="opacity:0.791" fill="#000000" d="M 224.5,627.5 C 226.604,627.201 228.604,627.534 230.5,628.5C 231.392,631.284 232.558,633.95 234,636.5C 235.145,633.568 235.978,630.568 236.5,627.5C 238.5,627.5 240.5,627.5 242.5,627.5C 240.641,633.91 238.474,640.243 236,646.5C 234.786,648.049 233.286,649.215 231.5,650C 233.134,650.494 234.801,650.66 236.5,650.5C 236.5,657.5 236.5,664.5 236.5,671.5C 234.143,671.663 231.81,671.497 229.5,671C 227.539,667.579 225.706,664.079 224,660.5C 223.501,664.152 223.335,667.818 223.5,671.5C 221.5,671.5 219.5,671.5 217.5,671.5C 217.5,664.5 217.5,657.5 217.5,650.5C 219.857,650.337 222.19,650.503 224.5,651C 226.461,654.421 228.294,657.921 230,661.5C 230.499,657.848 230.665,654.182 230.5,650.5C 229.167,650.5 227.833,650.5 226.5,650.5C 226.5,648.833 226.5,647.167 226.5,645.5C 227.833,645.5 229.167,645.5 230.5,645.5C 228.703,639.443 226.703,633.443 224.5,627.5 Z"/></g>
<g><path style="opacity:0.781" fill="#000000" d="M 275.5,627.5 C 277.5,627.5 279.5,627.5 281.5,627.5C 281.5,632.833 281.5,638.167 281.5,643.5C 279.5,643.5 277.5,643.5 275.5,643.5C 275.5,638.167 275.5,632.833 275.5,627.5 Z"/></g>
<g><path style="opacity:0.787" fill="#000000" d="M 307.5,627.5 C 316.011,625.696 320.344,629.029 320.5,637.5C 316.818,637.335 313.152,637.501 309.5,638C 312.264,640.982 315.264,641.149 318.5,638.5C 319.452,640.045 319.785,641.712 319.5,643.5C 313.676,645.505 308.509,644.505 304,640.5C 302.539,635.326 303.706,630.993 307.5,627.5 Z M 310.5,631.5 C 312.103,631.312 313.437,631.812 314.5,633C 312.833,633.667 311.167,633.667 309.5,633C 310.056,632.617 310.389,632.117 310.5,631.5 Z"/></g>
<g><path style="opacity:0.781" fill="#000000" d="M 354.5,627.5 C 356.5,627.5 358.5,627.5 360.5,627.5C 360.5,632.833 360.5,638.167 360.5,643.5C 358.5,643.5 356.5,643.5 354.5,643.5C 354.5,638.167 354.5,632.833 354.5,627.5 Z"/></g>
<g><path style="opacity:0.775" fill="#000000" d="M 368.5,627.5 C 371.448,627.223 374.281,627.556 377,628.5C 378.388,633.422 377.222,634.422 373.5,631.5C 369.601,632.819 368.601,635.319 370.5,639C 372.769,639.758 374.936,639.591 377,638.5C 377.557,644 375.057,645.833 369.5,644C 367.152,643.654 365.319,642.487 364,640.5C 362.243,634.825 363.743,630.492 368.5,627.5 Z"/></g>
<g><path style="opacity:0.786" fill="#000000" d="M 394.5,627.5 C 396.5,627.5 398.5,627.5 400.5,627.5C 400.5,631.5 400.5,635.5 400.5,639.5C 401.822,639.67 402.989,639.337 404,638.5C 404.499,634.848 404.665,631.182 404.5,627.5C 406.5,627.5 408.5,627.5 410.5,627.5C 410.5,632.833 410.5,638.167 410.5,643.5C 405.766,644.017 401.1,644.017 396.5,643.5C 395.808,642.975 395.308,642.308 395,641.5C 394.501,636.845 394.334,632.179 394.5,627.5 Z"/></g>
<g><path style="opacity:0.794" fill="#000000" d="M 414.5,627.5 C 418.601,628.366 422.601,628.366 426.5,627.5C 426.5,629.167 426.5,630.833 426.5,632.5C 424.533,632.261 422.699,632.594 421,633.5C 420.502,636.817 420.335,640.15 420.5,643.5C 418.5,643.5 416.5,643.5 414.5,643.5C 414.5,638.167 414.5,632.833 414.5,627.5 Z"/></g>
<g><path style="opacity:0.787" fill="#000000" d="M 431.5,627.5 C 440.011,625.696 444.344,629.029 444.5,637.5C 440.818,637.335 437.152,637.501 433.5,638C 436.264,640.982 439.264,641.149 442.5,638.5C 443.452,640.045 443.785,641.712 443.5,643.5C 437.676,645.505 432.509,644.505 428,640.5C 426.539,635.326 427.706,630.993 431.5,627.5 Z M 434.5,631.5 C 436.103,631.312 437.437,631.812 438.5,633C 436.833,633.667 435.167,633.667 433.5,633C 434.056,632.617 434.389,632.117 434.5,631.5 Z"/></g>
<g><path style="opacity:0.77" fill="#000000" d="M 75.5,649.5 C 77.8333,649.5 80.1667,649.5 82.5,649.5C 82.5,650.833 82.5,652.167 82.5,653.5C 76.0339,654.623 76.0339,655.29 82.5,655.5C 82.5,657.167 82.5,658.833 82.5,660.5C 80.8333,660.5 79.1667,660.5 77.5,660.5C 77.5,664.167 77.5,667.833 77.5,671.5C 75.5,671.5 73.5,671.5 71.5,671.5C 71.8355,666.846 71.1689,662.346 69.5,658C 71.2357,654.9 73.2357,652.066 75.5,649.5 Z"/></g>
<g><path style="opacity:0.803" fill="#000000" d="M 168.5,649.5 C 170.5,649.5 172.5,649.5 174.5,649.5C 174.337,651.857 174.503,654.19 175,656.5C 177.401,655.398 179.901,655.231 182.5,656C 183.126,656.75 183.626,657.584 184,658.5C 184.499,662.821 184.666,667.154 184.5,671.5C 182.5,671.5 180.5,671.5 178.5,671.5C 178.5,667.833 178.5,664.167 178.5,660.5C 177.178,660.33 176.011,660.663 175,661.5C 174.502,664.817 174.335,668.15 174.5,671.5C 172.5,671.5 170.5,671.5 168.5,671.5C 168.5,664.167 168.5,656.833 168.5,649.5 Z"/></g>
<g><path style="opacity:0.653" fill="#000000" d="M 363.5,649.5 C 365.5,649.5 367.5,649.5 369.5,649.5C 369.5,651.167 369.5,652.833 369.5,654.5C 367.5,654.5 365.5,654.5 363.5,654.5C 363.5,652.833 363.5,651.167 363.5,649.5 Z"/></g>
<g><path style="opacity:0.835" fill="#000000" d="M 309.5,650.5 C 313.846,650.334 318.179,650.501 322.5,651C 327.69,653.949 328.69,657.949 325.5,663C 322.312,664.316 318.978,664.816 315.5,664.5C 315.5,666.833 315.5,669.167 315.5,671.5C 313.5,671.5 311.5,671.5 309.5,671.5C 309.5,664.5 309.5,657.5 309.5,650.5 Z M 315.5,655.5 C 317.948,655.01 319.615,655.843 320.5,658C 319.381,659.876 317.714,660.709 315.5,660.5C 315.5,658.833 315.5,657.167 315.5,655.5 Z"/></g>
<g><path style="opacity:0.79" fill="#000000" d="M 155.5,651.5 C 157.5,651.5 159.5,651.5 161.5,651.5C 161.5,652.833 161.5,654.167 161.5,655.5C 163.167,655.5 164.833,655.5 166.5,655.5C 166.5,657.167 166.5,658.833 166.5,660.5C 164.833,660.5 163.167,660.5 161.5,660.5C 161.5,662.833 161.5,665.167 161.5,667.5C 163.167,667.5 164.833,667.5 166.5,667.5C 166.5,668.833 166.5,670.167 166.5,671.5C 163.223,671.784 160.057,671.451 157,670.5C 156.072,666.29 154.905,662.123 153.5,658C 154.618,655.941 155.285,653.774 155.5,651.5 Z"/></g>
<g><path style="opacity:0.79" fill="#000000" d="M 409.5,651.5 C 411.5,651.5 413.5,651.5 415.5,651.5C 415.5,652.833 415.5,654.167 415.5,655.5C 417.167,655.5 418.833,655.5 420.5,655.5C 420.5,657.167 420.5,658.833 420.5,660.5C 418.833,660.5 417.167,660.5 415.5,660.5C 415.5,662.833 415.5,665.167 415.5,667.5C 417.167,667.5 418.833,667.5 420.5,667.5C 420.5,668.833 420.5,670.167 420.5,671.5C 417.223,671.784 414.057,671.451 411,670.5C 410.072,666.29 408.905,662.123 407.5,658C 408.618,655.941 409.285,653.774 409.5,651.5 Z"/></g>
<g><path style="opacity:0.794" fill="#000000" d="M 83.5,655.5 C 87.6007,656.366 91.6007,656.366 95.5,655.5C 95.5,657.167 95.5,658.833 95.5,660.5C 93.5328,660.261 91.6995,660.594 90,661.5C 89.5017,664.817 89.335,668.15 89.5,671.5C 87.5,671.5 85.5,671.5 83.5,671.5C 83.5,666.167 83.5,660.833 83.5,655.5 Z"/></g>
<g><path style="opacity:0.786" fill="#000000" d="M 100.5,655.5 C 108.306,653.557 112.973,656.39 114.5,664C 112.899,670.972 108.565,673.639 101.5,672C 99.714,671.215 98.214,670.049 97,668.5C 95.5394,663.326 96.7061,658.993 100.5,655.5 Z M 104.5,659.5 C 107.183,661.041 108.016,663.374 107,666.5C 104.2,668.118 102.7,667.285 102.5,664C 102.519,662.167 103.185,660.667 104.5,659.5 Z"/></g>
<g><path style="opacity:0.831" fill="#000000" d="M 116.5,655.5 C 119.979,655.993 123.313,655.993 126.5,655.5C 128.374,655.39 129.874,656.056 131,657.5C 134.405,654.923 137.738,654.923 141,657.5C 141.499,662.155 141.666,666.821 141.5,671.5C 139.833,671.5 138.167,671.5 136.5,671.5C 136.665,668.482 136.498,665.482 136,662.5C 135.29,661.027 134.124,660.36 132.5,660.5C 132.5,664.167 132.5,667.833 132.5,671.5C 130.5,671.5 128.5,671.5 126.5,671.5C 126.665,668.15 126.498,664.817 126,661.5C 125,660.167 124,660.167 123,661.5C 122.502,664.817 122.335,668.15 122.5,671.5C 120.5,671.5 118.5,671.5 116.5,671.5C 116.5,666.167 116.5,660.833 116.5,655.5 Z"/></g>
<g><path style="opacity:0.787" fill="#000000" d="M 191.5,655.5 C 200.011,653.696 204.344,657.029 204.5,665.5C 200.818,665.335 197.152,665.501 193.5,666C 196.264,668.982 199.264,669.149 202.5,666.5C 203.452,668.045 203.785,669.712 203.5,671.5C 197.676,673.505 192.509,672.505 188,668.5C 186.539,663.326 187.706,658.993 191.5,655.5 Z M 194.5,659.5 C 196.103,659.312 197.437,659.812 198.5,661C 196.833,661.667 195.167,661.667 193.5,661C 194.056,660.617 194.389,660.117 194.5,659.5 Z"/></g>
<g><path style="opacity:0.786" fill="#000000" d="M 243.5,655.5 C 251.306,653.557 255.973,656.39 257.5,664C 255.899,670.972 251.565,673.639 244.5,672C 242.714,671.215 241.214,670.049 240,668.5C 238.539,663.326 239.706,658.993 243.5,655.5 Z M 247.5,659.5 C 250.183,661.041 251.016,663.374 250,666.5C 247.2,668.118 245.7,667.285 245.5,664C 245.519,662.167 246.185,660.667 247.5,659.5 Z"/></g>
<g><path style="opacity:0.786" fill="#000000" d="M 259.5,655.5 C 261.5,655.5 263.5,655.5 265.5,655.5C 265.5,659.5 265.5,663.5 265.5,667.5C 266.822,667.67 267.989,667.337 269,666.5C 269.499,662.848 269.665,659.182 269.5,655.5C 271.5,655.5 273.5,655.5 275.5,655.5C 275.5,660.833 275.5,666.167 275.5,671.5C 270.766,672.017 266.1,672.017 261.5,671.5C 260.808,670.975 260.308,670.308 260,669.5C 259.501,664.845 259.334,660.179 259.5,655.5 Z"/></g>
<g><path style="opacity:0.801" fill="#000000" d="M 279.5,655.5 C 284.066,656.184 288.733,656.351 293.5,656C 294.126,656.75 294.626,657.584 295,658.5C 295.499,662.821 295.666,667.154 295.5,671.5C 293.5,671.5 291.5,671.5 289.5,671.5C 289.5,667.833 289.5,664.167 289.5,660.5C 288.178,660.33 287.011,660.663 286,661.5C 285.502,664.817 285.335,668.15 285.5,671.5C 283.5,671.5 281.5,671.5 279.5,671.5C 279.5,666.167 279.5,660.833 279.5,655.5 Z"/></g>
<g><path style="opacity:0.794" fill="#000000" d="M 330.5,655.5 C 334.601,656.366 338.601,656.366 342.5,655.5C 342.5,657.167 342.5,658.833 342.5,660.5C 340.533,660.261 338.699,660.594 337,661.5C 336.502,664.817 336.335,668.15 336.5,671.5C 334.5,671.5 332.5,671.5 330.5,671.5C 330.5,666.167 330.5,660.833 330.5,655.5 Z"/></g>
<g><path style="opacity:0.786" fill="#000000" d="M 347.5,655.5 C 355.306,653.557 359.973,656.39 361.5,664C 359.899,670.972 355.565,673.639 348.5,672C 346.714,671.215 345.214,670.049 344,668.5C 342.539,663.326 343.706,658.993 347.5,655.5 Z M 351.5,659.5 C 354.183,661.041 355.016,663.374 354,666.5C 351.2,668.118 349.7,667.285 349.5,664C 349.519,662.167 350.185,660.667 351.5,659.5 Z"/></g>
<g><path style="opacity:0.778" fill="#000000" d="M 363.5,655.5 C 365.5,655.5 367.5,655.5 369.5,655.5C 369.666,661.509 369.499,667.509 369,673.5C 367.377,677.066 364.544,678.733 360.5,678.5C 360.5,676.833 360.5,675.167 360.5,673.5C 361.5,673.5 362.5,673.5 363.5,673.5C 363.5,667.5 363.5,661.5 363.5,655.5 Z"/></g>
<g><path style="opacity:0.787" fill="#000000" d="M 376.5,655.5 C 385.011,653.696 389.344,657.029 389.5,665.5C 385.818,665.335 382.152,665.501 378.5,666C 381.264,668.982 384.264,669.149 387.5,666.5C 388.452,668.045 388.785,669.712 388.5,671.5C 382.676,673.505 377.509,672.505 373,668.5C 371.539,663.326 372.706,658.993 376.5,655.5 Z M 379.5,659.5 C 381.103,659.312 382.437,659.812 383.5,661C 381.833,661.667 380.167,661.667 378.5,661C 379.056,660.617 379.389,660.117 379.5,659.5 Z"/></g>
<g><path style="opacity:0.775" fill="#000000" d="M 396.5,655.5 C 399.448,655.223 402.281,655.556 405,656.5C 406.388,661.422 405.222,662.422 401.5,659.5C 397.601,660.819 396.601,663.319 398.5,667C 400.769,667.758 402.936,667.591 405,666.5C 405.557,672 403.057,673.833 397.5,672C 395.152,671.654 393.319,670.487 392,668.5C 390.243,662.825 391.743,658.492 396.5,655.5 Z"/></g>
</svg>
